<?xml version="1.0" encoding="UTF-8"?>
<svg xmlns="http://www.w3.org/2000/svg" xmlns:xlink="http://www.w3.org/1999/xlink" width="500pt" height="500pt" viewBox="0 0 500 500" version="1.1">
<g id="surface1">
<path style=" stroke:none;fill-rule:nonzero;fill:#1F1F1F;fill-opacity:1;" d="M 496.03125 248.015625 C 496.03125 176.59375 433.523438 119.046875 357.144531 119.046875 C 310.523438 119.046875 280.761719 140.867188 259.914063 165.667969 C 263.867188 171.632813 264.875 172.605469 267.855469 178.570313 C 271.808594 185.507813 288.707031 218.253906 291.652344 225.191406 L 292.660156 224.222656 C 310.523438 192.445313 327.382813 178.570313 357.144531 178.570313 C 400.777344 178.570313 436.507813 209.339844 436.507813 248.015625 C 436.507813 286.691406 400.777344 317.460938 357.144531 317.460938 C 312.152344 317.460938 293.703125 278.28125 272.390625 232.902344 C 247.28125 179.539063 218.796875 119.046875 138.890625 119.046875 C 61.964844 120.519531 0 176.90625 0 248.015625 C 0 319.4375 62.507813 376.984375 138.890625 376.984375 C 185.507813 376.984375 215.269531 356.136719 236.117188 330.363281 C 232.128906 324.398438 231.160156 323.429688 228.175781 317.460938 C 224.222656 309.515625 207.324219 276.769531 204.378906 269.832031 L 203.371094 270.839844 C 185.507813 303.585938 168.652344 317.460938 138.890625 317.460938 C 95.253906 317.460938 59.523438 286.691406 59.523438 248.015625 C 59.523438 209.417969 95.097656 178.726563 138.617188 178.570313 C 183.917969 178.726563 202.871094 218.097656 224.84375 263.710938 C 250.300781 316.492188 279.132813 376.285156 357.144531 376.90625 C 357.144531 376.945313 357.144531 376.945313 357.144531 376.984375 C 357.335938 376.984375 357.570313 376.945313 357.761719 376.945313 C 357.996094 376.945313 358.1875 376.984375 358.382813 376.984375 L 358.382813 376.90625 C 434.222656 376.285156 496.03125 319.050781 496.03125 248.015625 Z "/>
</g>
</svg>
